# xmcd
#
# Track frame offsets: 
#        150
#        24452
#        45236
#        65100
#        81969
#        101778
#        128789
#        153829
#        172934
#        190653
#        210719
#        245031
#
# Disc length: 3434 seconds
#
# Revision: 0
# Processed by: cddbd v1.5.2PL0 Copyright (c) Steve Scherf et al.
# Submitted via: ExactAudioCopy v1.3
#
DISCID=9c0d680c
DTITLE=AG Weinberger - Reborn
DYEAR=2018
DGENRE=Blues
TTITLE0=Wang Dang Doodle
TTITLE1=Sweet Little Number
TTITLE2=On the Wrong Side
TTITLE3=The Fool's Lucky Day (feat. Bob Margolin)
TTITLE4=It Wouldn't Be Enough
TTITLE5=Slippery Slope
TTITLE6=Just One Minute
TTITLE7=Cadillac Blues
TTITLE8=Shoot
TTITLE9=Caroline
TTITLE10=Reborn
TTITLE11=I am the Water
EXTD=
EXTT0=
EXTT1=
EXTT2=
EXTT3=
EXTT4=
EXTT5=
EXTT6=
EXTT7=
EXTT8=
EXTT9=
EXTT10=
EXTT11=
PLAYORDER=
